<?xml version="1.0" standalone="no"?>
<!DOCTYPE svg PUBLIC "-//W3C//DTD SVG 20010904//EN"
 "http://www.w3.org/TR/2001/REC-SVG-20010904/DTD/svg10.dtd">
<svg version="1.0" xmlns="http://www.w3.org/2000/svg"
 width="900.000000pt" height="483.000000pt" viewBox="0 0 900.000000 483.000000"
 preserveAspectRatio="xMidYMid meet">
<metadata>
Created by potrace 1.10, written by Peter Selinger 2001-2011
</metadata>
<g transform="translate(0.000000,483.000000) scale(0.100000,-0.100000)"
fill="#ffffff" stroke="none">
<path d="M1070 3991 c-8 -5 -34 -12 -57 -16 -40 -6 -103 -52 -183 -134 -14
-14 -64 -62 -110 -105 -245 -228 -300 -290 -300 -334 0 -10 -7 -27 -15 -38
-18 -24 -18 -64 0 -88 8 -11 15 -28 15 -37 0 -45 39 -90 221 -263 131 -123
464 -442 556 -532 46 -45 105 -102 132 -127 26 -25 51 -55 54 -67 6 -24 -1
-50 -13 -50 -9 0 -20 -10 -266 -249 -82 -80 -204 -196 -270 -258 -190 -178
-384 -371 -384 -381 0 -5 -7 -15 -15 -22 -8 -7 -15 -24 -15 -39 0 -14 -7 -35
-15 -45 -19 -25 -19 -55 0 -80 8 -11 15 -30 15 -43 0 -38 29 -73 195 -234 347
-336 327 -319 416 -348 19 -6 53 -11 75 -11 62 0 170 43 196 77 7 10 42 45 78
78 36 32 171 161 300 285 129 125 280 269 334 321 55 52 121 116 147 142 32
33 54 48 67 45 11 -2 72 -52 135 -113 365 -353 628 -606 738 -710 96 -90 165
-125 249 -125 99 0 148 31 329 206 308 296 339 329 346 360 3 16 12 42 20 57
19 37 19 91 0 107 -8 7 -15 25 -15 41 0 25 -30 59 -189 217 -105 103 -232 226
-283 274 -330 307 -488 466 -488 491 0 20 76 98 385 392 18 17 97 93 177 170
80 77 195 188 256 248 62 59 112 111 112 116 0 5 7 14 15 21 8 7 15 22 15 34
0 12 7 31 15 42 19 25 19 83 0 108 -8 11 -15 30 -15 42 0 12 -7 27 -15 34 -8
7 -15 16 -15 21 0 9 -131 140 -221 223 -30 27 -106 99 -170 159 -110 105 -118
110 -185 128 -65 17 -73 17 -139 2 -91 -21 -96 -24 -401 -321 -83 -81 -238
-231 -345 -334 -342 -328 -311 -303 -340 -270 -9 9 -33 32 -55 50 -21 19 -107
100 -189 180 -133 130 -564 545 -634 612 -50 47 -86 66 -156 83 -80 19 -75 19
-95 8z"/>
<path d="M6101 2855 c-18 -8 -43 -15 -55 -15 -11 0 -36 -9 -53 -20 -32 -19
-33 -22 -33 -89 l0 -70 -52 -3 -53 -3 -3 -69 c-2 -38 2 -74 7 -79 6 -6 30 -13
53 -16 l43 -6 6 -200 c7 -217 15 -254 65 -308 44 -47 98 -67 182 -67 42 0 88
6 108 15 l35 14 -3 73 -3 73 -40 -3 c-53 -3 -91 14 -104 47 -7 17 -11 87 -9
191 l3 165 67 3 c41 2 71 8 78 17 6 8 10 41 8 82 l-3 68 -75 5 -75 5 -5 100
c-5 98 -6 100 -30 102 -14 2 -40 -4 -59 -12z"/>
<path d="M4445 2664 c-44 -7 -98 -19 -120 -27 l-40 -15 -3 -68 c-4 -96 -2 -99
55 -70 64 32 168 48 222 34 48 -12 81 -48 81 -89 0 -32 3 -31 -130 -48 -135
-17 -152 -22 -205 -57 -76 -50 -90 -80 -90 -194 0 -93 1 -97 33 -138 80 -101
246 -110 346 -17 34 31 46 32 46 1 0 -39 21 -47 117 -44 l88 3 3 255 c3 287
-4 332 -63 396 -44 47 -87 69 -166 83 -76 13 -69 13 -174 -5z m195 -445 c0
-90 -55 -149 -138 -149 -42 0 -77 25 -92 66 -27 69 62 131 188 133 l42 1 0
-51z"/>
<path d="M5414 2666 c-29 -7 -74 -29 -102 -49 -27 -20 -52 -37 -56 -37 -3 0
-6 13 -6 29 0 45 -18 52 -121 49 l-94 -3 -3 -524 c-2 -413 0 -526 10 -533 7
-4 52 -8 100 -8 76 0 89 2 98 19 6 12 10 95 10 201 l0 181 32 -23 c111 -79
225 -78 344 3 69 47 114 134 134 258 27 165 -25 332 -123 400 -34 22 -139 54
-166 50 -3 0 -29 -6 -57 -13z m46 -175 c58 -30 80 -81 80 -184 0 -147 -52
-221 -157 -221 -59 0 -91 22 -124 86 -26 51 -26 170 0 230 41 95 123 131 201
89z"/>
<path d="M7692 2667 c-24 -7 -60 -28 -83 -50 -22 -21 -43 -36 -46 -33 -3 3 -8
20 -12 38 l-7 33 -93 3 c-60 2 -98 -1 -107 -9 -19 -16 -21 -688 -2 -707 17
-17 197 -16 203 1 3 6 6 102 8 212 2 185 4 203 25 245 33 67 62 83 146 84 l71
1 3 88 c3 86 2 87 -23 97 -30 11 -27 12 -83 -3z"/>
<path d="M8135 2665 c-77 -16 -119 -38 -171 -91 -51 -50 -77 -99 -98 -181 -20
-78 -20 -140 0 -222 43 -171 167 -261 359 -261 94 0 223 30 242 56 15 21 18
120 3 129 -5 3 -39 -1 -75 -10 -147 -34 -259 -9 -299 66 -37 68 -33 69 207 69
152 0 216 3 225 12 17 17 15 144 -4 209 -37 126 -123 205 -245 227 -76 14 -66
14 -144 -3z m117 -147 c46 -14 78 -64 78 -123 l0 -35 -114 0 c-63 0 -121 3
-129 6 -34 13 31 125 87 150 38 16 31 16 78 2z"/>
<path d="M6464 2646 c-3 -8 -4 -138 -2 -288 l3 -273 31 -55 c77 -137 255 -161
376 -52 42 38 58 34 58 -14 0 -12 7 -25 16 -28 20 -8 168 -8 188 0 14 5 16 47
16 360 l0 354 -22 5 c-13 3 -61 5 -108 3 l-85 -3 -5 -240 c-5 -249 -7 -261
-52 -301 -49 -46 -139 -38 -175 14 -16 24 -19 56 -23 277 l-5 250 -103 3 c-83
2 -103 0 -108 -12z"/>
</g>
</svg>
